# Blender v2.78 (sub 0) OBJ File: ''
# www.blender.org
mtllib 1.mtl
o Circle
v 0.000000 0.150000 0.000000
v 0.000000 0.120611 -1.028178
v -0.727033 0.120611 -0.727033
v -1.028178 0.120611 0.000000
v -0.727033 0.120611 0.727033
v 0.000000 0.120611 1.028178
v 0.727034 0.120611 0.727033
v 1.028178 0.120611 -0.000000
v 0.727034 0.120611 -0.727033
v 0.000000 2.058732 -1.355355
v -0.958382 2.058732 -0.958382
v -1.355355 2.058732 0.000000
v -0.958382 2.058732 0.958382
v 0.000000 2.058732 1.355355
v 0.958382 2.058732 0.958382
v 1.355355 2.058732 -0.000000
v 0.958382 2.058732 -0.958382
v 0.000000 1.602641 -1.431069
v 1.011920 1.602641 -1.011920
v 1.431069 1.602641 -0.000000
v 1.011920 1.602641 1.011919
v -1.011920 1.602641 -1.011920
v 0.000000 1.602641 1.431069
v -1.011920 1.602641 1.011920
v -1.431069 1.602641 0.000000
v 0.000000 0.672099 -1.313077
v -0.928486 0.672099 -0.928486
v 0.928486 0.672099 -0.928486
v 1.313077 0.672099 -0.000000
v 0.928486 0.672099 0.928486
v 0.000000 0.672099 1.313077
v -0.928486 0.672099 0.928486
v -1.313077 0.672099 0.000000
v 0.000000 0.000000 0.000000
v 0.000000 0.000000 -1.117353
v -0.790088 0.000000 -0.790088
v -1.117353 0.000000 0.000000
v -0.790088 0.000000 0.790088
v 0.000000 0.000000 1.117353
v 0.790088 0.000000 0.790088
v 1.117353 0.000000 -0.000000
v 0.790088 0.000000 -0.790088
v 0.000000 2.082793 -1.503410
v -1.063071 2.082793 -1.063071
v -1.503410 2.082793 0.000000
v -1.063071 2.082793 1.063071
v 0.000000 2.082793 1.503410
v 1.063071 2.082793 1.063071
v 1.503410 2.082793 -0.000000
v 1.063071 2.082793 -1.063071
v 0.000000 1.605127 -1.581046
v 1.117969 1.605127 -1.117968
v 1.581046 1.605127 -0.000000
v 1.117969 1.605127 1.117968
v -1.117968 1.605127 -1.117968
v 0.000000 1.605127 1.581046
v -1.117968 1.605127 1.117968
v -1.581046 1.605127 0.000000
v 0.000000 0.628047 -1.456463
v -1.029874 0.628047 -1.029874
v 1.029875 0.628047 -1.029874
v 1.456463 0.628047 -0.000000
v 1.029875 0.628047 1.029874
v 0.000000 0.628047 1.456463
v -1.029874 0.628047 1.029874
v -1.456463 0.628047 0.000000
vn -0.0118 0.9995 -0.0286
vn -0.0286 0.9995 -0.0118
vn -0.0286 0.9995 0.0118
vn -0.0118 0.9995 0.0286
vn 0.0118 0.9995 0.0286
vn 0.0286 0.9995 0.0118
vn 0.0286 0.9995 -0.0118
vn 0.0118 0.9995 -0.0286
vn -0.3783 -0.1516 0.9132
vn -0.9132 -0.1516 0.3783
vn -0.9132 -0.1516 -0.3783
vn 0.3783 -0.1516 0.9132
vn -0.3783 -0.1516 -0.9132
vn 0.3783 -0.1516 -0.9132
vn 0.9132 -0.1516 -0.3783
vn 0.9132 -0.1516 0.3783
vn 0.9176 0.1164 0.3801
vn 0.9176 0.1164 -0.3801
vn 0.3801 0.1164 -0.9176
vn -0.3801 0.1164 -0.9176
vn 0.3801 0.1164 0.9176
vn -0.9176 0.1164 -0.3801
vn -0.9176 0.1164 0.3801
vn -0.3801 0.1164 0.9176
vn -0.3454 0.4307 0.8338
vn -0.8338 0.4307 0.3454
vn -0.8338 0.4307 -0.3454
vn 0.3454 0.4307 0.8338
vn -0.3454 0.4307 -0.8338
vn 0.3454 0.4307 -0.8338
vn 0.8338 0.4307 -0.3454
vn 0.8338 0.4307 0.3454
vn 0.0000 -1.0000 0.0000
vn 0.3784 0.1485 -0.9136
vn 0.9136 0.1485 -0.3784
vn 0.9136 0.1485 0.3784
vn -0.3784 0.1485 -0.9136
vn 0.3784 0.1485 0.9136
vn -0.3784 0.1485 0.9136
vn -0.9136 0.1485 0.3784
vn -0.9136 0.1485 -0.3784
vn -0.9175 -0.1170 -0.3801
vn -0.9175 -0.1170 0.3801
vn -0.3801 -0.1170 0.9175
vn 0.3801 -0.1170 0.9175
vn -0.3801 -0.1170 -0.9175
vn 0.9175 -0.1170 0.3801
vn 0.9175 -0.1170 -0.3801
vn 0.3801 -0.1170 -0.9175
vn 0.3424 -0.4464 -0.8267
vn 0.8267 -0.4464 -0.3424
vn 0.8267 -0.4464 0.3424
vn -0.3424 -0.4464 -0.8267
vn 0.3424 -0.4464 0.8267
vn -0.3424 -0.4464 0.8267
vn -0.8267 -0.4464 0.3424
vn -0.8267 -0.4464 -0.3424
vn 0.0663 0.9849 0.1601
vn 0.1601 0.9849 0.0663
vn 0.1601 0.9849 -0.0663
vn 0.0663 0.9849 -0.1601
vn -0.0663 0.9849 -0.1601
vn -0.1601 0.9849 -0.0663
vn -0.1601 0.9849 0.0663
vn -0.0663 0.9849 0.1601
usemtl None
s off
f 1//1 2//1 3//1
f 1//2 3//2 4//2
f 1//3 4//3 5//3
f 1//4 5//4 6//4
f 1//5 6//5 7//5
f 1//6 7//6 8//6
f 1//7 8//7 9//7
f 1//8 9//8 2//8
f 18//9 19//9 17//9 10//9
f 19//10 20//10 16//10 17//10
f 20//11 21//11 15//11 16//11
f 22//12 18//12 10//12 11//12
f 21//13 23//13 14//13 15//13
f 23//14 24//14 13//14 14//14
f 24//15 25//15 12//15 13//15
f 25//16 22//16 11//16 12//16
f 33//17 27//17 22//17 25//17
f 32//18 33//18 25//18 24//18
f 31//19 32//19 24//19 23//19
f 30//20 31//20 23//20 21//20
f 27//21 26//21 18//21 22//21
f 29//22 30//22 21//22 20//22
f 28//23 29//23 20//23 19//23
f 26//24 28//24 19//24 18//24
f 2//25 9//25 28//25 26//25
f 9//26 8//26 29//26 28//26
f 8//27 7//27 30//27 29//27
f 3//28 2//28 26//28 27//28
f 7//29 6//29 31//29 30//29
f 6//30 5//30 32//30 31//30
f 5//31 4//31 33//31 32//31
f 4//32 3//32 27//32 33//32
f 34//33 36//33 35//33
f 34//33 37//33 36//33
f 34//33 38//33 37//33
f 34//33 39//33 38//33
f 34//33 40//33 39//33
f 34//33 41//33 40//33
f 34//33 42//33 41//33
f 34//33 35//33 42//33
f 51//34 43//34 50//34 52//34
f 52//35 50//35 49//35 53//35
f 53//36 49//36 48//36 54//36
f 55//37 44//37 43//37 51//37
f 54//38 48//38 47//38 56//38
f 56//39 47//39 46//39 57//39
f 57//40 46//40 45//40 58//40
f 58//41 45//41 44//41 55//41
f 66//42 58//42 55//42 60//42
f 65//43 57//43 58//43 66//43
f 64//44 56//44 57//44 65//44
f 63//45 54//45 56//45 64//45
f 60//46 55//46 51//46 59//46
f 62//47 53//47 54//47 63//47
f 61//48 52//48 53//48 62//48
f 59//49 51//49 52//49 61//49
f 35//50 59//50 61//50 42//50
f 42//51 61//51 62//51 41//51
f 41//52 62//52 63//52 40//52
f 36//53 60//53 59//53 35//53
f 40//54 63//54 64//54 39//54
f 39//55 64//55 65//55 38//55
f 38//56 65//56 66//56 37//56
f 37//57 66//57 60//57 36//57
f 11//58 10//58 43//58 44//58
f 12//59 11//59 44//59 45//59
f 13//60 12//60 45//60 46//60
f 14//61 13//61 46//61 47//61
f 15//62 14//62 47//62 48//62
f 16//63 15//63 48//63 49//63
f 17//64 16//64 49//64 50//64
f 10//65 17//65 50//65 43//65
